<?xml version="1.0" standalone="no"?>
<!DOCTYPE svg PUBLIC "-//W3C//DTD SVG 20010904//EN"
 "http://www.w3.org/TR/2001/REC-SVG-20010904/DTD/svg10.dtd">
<svg version="1.0" xmlns="http://www.w3.org/2000/svg"
 width="158.000000pt" height="136.000000pt" viewBox="0 0 158.000000 136.000000"
 preserveAspectRatio="xMidYMid meet">

<g transform="translate(0.000000,136.000000) scale(0.100000,-0.100000)"
fill="#000000" stroke="none">
<path d="M216 1331 c-9 -14 6 -110 20 -128 10 -14 16 -16 31 -7 33 21 11 144
-26 144 -11 0 -22 -4 -25 -9z"/>
<path d="M451 1259 c-23 -38 -35 -84 -26 -99 3 -5 15 -10 25 -10 22 0 63 81
58 115 -5 33 -35 30 -57 -6z"/>
<path d="M34 1155 c-9 -23 11 -41 60 -55 50 -14 66 -8 66 21 0 37 -114 67
-126 34z"/>
<path d="M660 1103 c0 -5 -11 -48 -25 -96 -19 -71 -21 -88 -10 -83 8 3 21 8
29 12 9 3 15 -7 20 -35 6 -40 18 -49 44 -32 10 6 11 19 6 46 l-7 37 34 -7 c33
-7 33 -7 17 16 -8 13 -33 52 -54 87 -35 56 -54 75 -54 55z"/>
<path d="M777 1075 c-15 -22 -23 -41 -17 -43 5 -2 10 -12 10 -23 0 -10 7 -19
15 -19 8 0 15 6 15 14 0 8 5 16 12 18 8 3 9 16 2 49 l-9 44 -28 -40z"/>
<path d="M883 1020 c-40 -39 -73 -72 -73 -75 0 -3 13 -5 30 -5 l30 0 -17 -41
c-13 -35 -14 -42 -2 -50 26 -16 39 -9 54 27 14 35 16 36 33 20 10 -9 22 -16
25 -16 4 0 7 47 7 105 0 58 -3 105 -7 105 -5 0 -41 -32 -80 -70z"/>
<path d="M283 1058 c3 -13 20 -95 38 -183 17 -88 35 -164 39 -168 4 -4 19 10
35 33 15 22 31 40 35 40 3 0 26 -27 50 -60 l43 -59 29 17 c54 32 55 38 9 103
-24 34 -39 64 -35 68 5 4 29 13 53 20 27 8 40 16 34 22 -16 16 -313 189 -324
189 -6 0 -9 -10 -6 -22z"/>
<path d="M520 1034 c0 -25 4 -43 9 -39 6 3 14 -2 19 -11 5 -9 15 -14 21 -10 6
4 8 12 5 18 -4 6 0 14 7 19 11 6 7 15 -16 39 -16 16 -32 30 -37 30 -4 0 -8
-21 -8 -46z"/>
<path d="M1055 938 c-50 -26 -57 -33 -43 -41 15 -10 15 -13 1 -34 -12 -18 -13
-27 -5 -35 9 -9 18 -6 36 11 21 20 24 20 30 5 9 -24 21 -8 34 47 7 26 14 54
18 63 8 22 -2 20 -71 -16z"/>
<path d="M193 868 c2 -7 10 -30 18 -50 12 -36 29 -51 29 -27 0 8 5 8 15 -1 8
-7 22 -9 31 -6 15 6 15 8 -1 26 -10 12 -13 20 -7 20 28 0 8 19 -35 34 -56 19
-56 19 -50 4z"/>
<path d="M773 845 c-25 -38 -29 -50 -13 -40 6 3 10 -3 10 -14 0 -25 15 -28 24
-5 3 8 11 12 17 9 7 -5 8 5 3 32 -9 54 -16 57 -41 18z"/>
<path d="M1162 822 c-42 -14 -51 -20 -41 -29 10 -10 9 -17 -6 -33 -27 -30 -6
-48 29 -25 24 16 26 16 26 1 0 -30 16 -16 43 39 15 31 27 58 27 60 0 8 -21 4
-78 -13z"/>
<path d="M613 800 c4 -18 7 -55 7 -83 0 -49 0 -50 20 -32 19 17 20 17 31 -9
23 -51 57 -16 35 36 -6 12 -2 17 14 20 17 2 12 9 -32 44 -81 62 -82 62 -75 24z"/>
<path d="M880 777 c-40 -30 -50 -43 -37 -45 18 -4 23 -27 7 -37 -15 -9 -12
-25 6 -32 9 -3 21 3 31 16 11 17 18 19 28 11 11 -9 15 -7 19 12 12 56 17 118
9 117 -4 0 -33 -19 -63 -42z"/>
<path d="M100 754 c0 -12 74 -124 83 -124 4 0 7 7 7 15 0 18 14 19 40 3 16
-10 22 -10 32 0 11 11 8 18 -15 36 -24 19 -26 24 -13 29 32 13 15 25 -45 31
-33 4 -67 10 -75 13 -8 3 -14 2 -14 -3z"/>
<path d="M1012 733 c-32 -19 -40 -28 -32 -38 8 -9 8 -15 0 -20 -15 -10 -12
-35 5 -35 9 0 18 7 21 15 5 12 10 13 19 5 10 -8 15 -7 19 7 8 29 19 93 15 93
-2 -1 -23 -12 -47 -27z"/>
<path d="M1168 678 c17 -17 15 -23 -14 -37 -21 -9 -24 -14 -14 -26 9 -11 17
-12 30 -5 25 14 30 13 30 -6 0 -9 4 -14 8 -12 11 4 82 84 82 92 0 3 -30 6 -67
6 -52 0 -64 -3 -55 -12z"/>
<path d="M762 650 c-24 -32 -28 -45 -11 -34 8 4 9 0 4 -15 -7 -25 9 -28 31 -7
15 16 18 54 6 74 -6 9 -14 4 -30 -18z"/>
<path d="M383 648 c3 -7 15 -39 28 -70 23 -56 39 -74 39 -43 0 8 4 15 9 15 5
0 14 -7 21 -15 7 -8 18 -15 26 -15 24 0 26 21 4 45 -21 22 -21 24 -3 33 22 13
21 15 -50 41 -66 24 -81 26 -74 9z"/>
<path d="M623 603 c8 -32 14 -38 38 -40 29 -2 39 10 18 23 -8 5 -7 9 1 14 9 6
3 13 -18 24 -45 23 -50 21 -39 -21z"/>
<path d="M868 602 c-44 -14 -64 -32 -36 -32 6 0 3 -9 -7 -20 -23 -26 -6 -52
20 -30 11 9 18 10 29 1 11 -9 17 -2 32 36 11 27 21 51 22 55 5 11 -4 9 -60
-10z"/>
<path d="M110 587 l-45 -9 35 -29 c36 -30 50 -36 50 -19 0 6 9 10 20 10 23 0
27 15 6 27 -7 4 -15 13 -17 19 -3 7 -19 7 -49 1z"/>
<path d="M1260 584 c0 -33 132 -143 198 -164 56 -18 59 -26 26 -61 -30 -32
-145 -92 -199 -103 -30 -6 -37 -3 -115 51 -16 11 -12 3 13 -24 l38 -40 -32 -7
c-17 -3 -56 -6 -85 -6 -34 0 -54 -4 -54 -12 0 -8 28 -9 103 -5 108 6 202 31
274 73 46 26 118 103 126 134 5 18 0 20 -39 20 -56 0 -107 25 -189 96 -36 30
-65 52 -65 48z"/>
<path d="M281 573 l-44 -4 39 -40 c40 -41 54 -48 54 -26 0 7 11 13 27 12 32 0
42 20 12 28 -14 4 -20 11 -16 21 4 11 1 15 -11 14 -9 -1 -37 -3 -61 -5z"/>
<path d="M601 516 c7 -15 20 -23 35 -23 20 0 22 2 13 13 -6 8 -8 14 -3 14 17
0 -21 20 -38 20 -15 0 -16 -4 -7 -24z"/>
<path d="M717 512 c-14 -15 -14 -62 0 -62 13 0 33 32 33 54 0 30 -11 33 -33 8z"/>
<path d="M942 518 c-32 -32 7 -118 54 -118 13 0 24 5 24 11 0 5 -4 7 -10 4 -5
-3 -21 6 -36 20 -31 31 -29 65 6 82 l25 13 -25 0 c-15 0 -31 -5 -38 -12z"/>
<path d="M128 453 c-32 -15 -58 -29 -58 -33 0 -7 113 -60 127 -60 3 0 3 9 0
20 -4 17 0 20 24 20 22 0 29 5 29 20 0 15 -7 20 -29 20 -24 0 -28 3 -24 20 7
25 2 24 -69 -7z"/>
<path d="M560 463 c1 -13 30 -47 30 -35 0 6 7 9 15 6 8 -4 15 -1 15 5 0 6 -5
11 -11 11 -5 0 -7 5 -4 10 4 6 -5 10 -19 10 -14 0 -26 -3 -26 -7z"/>
<path d="M823 455 c-15 -17 -17 -29 -4 -21 5 4 11 1 13 -5 2 -7 12 -7 32 2 26
12 26 14 10 26 -23 16 -36 16 -51 -2z"/>
<path d="M1156 457 c-27 -19 -17 -59 17 -71 21 -8 31 -6 44 7 13 13 14 19 4
31 -7 8 -10 19 -7 25 3 5 -1 12 -10 15 -22 9 -28 8 -48 -7z"/>
<path d="M450 451 l-24 -7 32 -23 c18 -12 32 -18 32 -12 0 6 7 11 15 11 19 0
19 7 1 26 -16 15 -19 15 -56 5z"/>
<path d="M327 420 c-37 -29 -34 -37 13 -42 28 -2 39 0 36 8 -3 7 5 14 16 17
12 3 17 10 13 17 -4 6 -13 9 -20 6 -7 -2 -17 0 -22 5 -6 6 -19 2 -36 -11z"/>
<path d="M659 433 c-16 -4 -34 -53 -20 -53 17 1 46 27 47 43 2 17 1 18 -27 10z"/>
<path d="M780 407 c0 -14 -4 -16 -19 -7 -26 13 -31 13 -31 -4 0 -8 8 -17 17
-20 15 -6 15 -8 3 -16 -20 -12 -13 -16 44 -25 l49 -7 -23 39 c-31 52 -40 60
-40 40z"/>
<path d="M426 348 c-14 -19 -18 -21 -26 -8 -5 8 -11 12 -13 10 -5 -7 -24 -120
-20 -120 1 0 26 14 54 32 41 25 48 33 35 40 -13 7 -13 12 -4 28 20 31 -5 48
-26 18z"/>
<path d="M553 350 c-6 -23 -14 -25 -32 -7 -11 10 -13 6 -7 -22 3 -18 6 -50 6
-69 l0 -36 45 44 c46 45 57 67 29 56 -14 -5 -16 -1 -11 24 5 23 3 30 -9 30 -9
0 -18 -9 -21 -20z"/>
<path d="M665 330 c-4 -11 -11 -18 -16 -15 -13 9 -10 -24 4 -59 l13 -30 22 36
c24 38 28 53 12 43 -5 -3 -10 3 -10 14 0 28 -17 35 -25 11z"/>
<path d="M121 294 c-9 -20 -8 -24 7 -23 28 1 47 13 48 30 2 27 -42 21 -55 -7z"/>
<path d="M886 299 c-19 -15 -26 -30 -26 -54 0 -41 13 -51 41 -31 17 12 25 12
41 3 15 -10 20 -9 28 2 7 12 14 13 33 4 21 -10 26 -9 31 3 28 73 -80 126 -148
73z m112 -15 c12 -8 22 -22 22 -30 0 -17 -12 -18 -29 -1 -10 10 -15 9 -25 -5
-10 -13 -15 -15 -25 -5 -9 9 -16 9 -31 -1 -45 -28 -57 3 -14 37 32 25 71 27
102 5z"/>
<path d="M236 274 c-9 -20 -15 -38 -13 -40 2 -2 23 2 48 10 24 8 38 14 31 15
-10 1 -10 5 0 21 15 24 4 37 -17 20 -10 -8 -15 -9 -15 -1 0 22 -17 10 -34 -25z"/>
<path d="M743 278 c2 -12 14 -28 26 -36 22 -15 22 -14 15 14 -11 43 -47 63
-41 22z"/>
</g>
</svg>
